<svg width="553" height="116" viewBox="0 0 553 116" fill="none" xmlns="http://www.w3.org/2000/svg">
<path d="M393.157 115.154H370.406L361.826 76.7222L356.62 53.3887H379.362L384.569 76.7222L393.157 115.154Z" fill="white"/>
<path d="M160.23 115.156H141.487C140.262 115.156 139.331 114.021 139.543 112.783L158.636 1.67441C158.802 0.710058 159.622 0.000976562 160.58 0.000976562H179.323C180.549 0.000976562 181.48 1.13551 181.268 2.37404L162.175 113.473C162.009 114.437 161.189 115.146 160.23 115.146V115.156Z" fill="white"/>
<path d="M139.48 2.38349L120.386 113.482C120.221 114.447 119.4 115.156 118.442 115.156H99.6991C99.0725 115.156 98.5288 114.863 98.1694 114.409L98.0589 114.258C97.7824 113.842 97.6626 113.322 97.7548 112.783L102.998 82.2733L116.848 1.67441C117.014 0.710058 117.834 0.000976562 118.792 0.000976562H137.535C138.761 0.000976562 139.692 1.13551 139.48 2.38349Z" fill="white"/>
<path d="M115.392 99.4615L100.086 115.156H99.7171C99.0905 115.156 98.5469 114.863 98.1875 114.409L98.0769 114.258L34.0153 25.6035L27.7769 16.5084L43.8568 0.000976562L45.1653 1.91077L103.016 82.2733L115.392 99.4615Z" fill="white"/>
<path d="M20.7175 115.155H1.97453C0.748955 115.155 -0.181744 114.02 0.0301975 112.782L19.1234 1.67343C19.2892 0.709081 20.1093 0 21.0677 0H39.8107C41.0363 0 41.967 1.13453 41.755 2.37306L22.6619 113.472C22.496 114.436 21.6759 115.145 20.7175 115.145V115.155Z" fill="white"/>
<path d="M249.689 115.156H230.826C229.637 115.156 228.734 114.05 228.946 112.849L248.058 1.62714C248.214 0.691149 249.016 0.000976562 249.937 0.000976562H268.8C269.989 0.000976562 270.892 1.10714 270.68 2.30786L251.568 113.539C251.412 114.475 250.61 115.165 249.689 115.165V115.156Z" fill="white"/>
<path d="M344.695 0.000976562L340.677 23.3439H317.935L321.944 0.000976562H344.695Z" fill="white"/>
<path d="M317.991 53.3887H335.536L324.92 115.164H302.169L311.881 58.6548C312.407 55.6105 314.978 53.3981 317.991 53.3981V53.3887Z" fill="white"/>
<path d="M196.871 21.1883L200.068 2.58203C200.326 1.08823 201.589 0.000976562 203.063 0.000976562H316.839L312.83 23.3439H198.631C197.516 23.3439 196.677 22.3134 196.871 21.1883Z" fill="white"/>
<path d="M431.58 27.3999L421.204 87.7569C418.605 102.884 428.447 115.156 443.2 115.156H510.542C525.285 115.156 539.347 102.893 541.955 87.7569L552.331 27.3999C554.93 12.2728 545.079 0.000976562 530.335 0.000976562H462.993C448.249 0.000976562 434.187 12.2634 431.58 27.3999ZM444.397 85.1948L453.889 29.962C454.515 26.3032 457.916 23.3439 461.482 23.3439H523.829C527.396 23.3439 529.773 26.3126 529.146 29.962L519.655 85.1948C519.028 88.8536 515.628 91.8128 512.062 91.8128H449.714C446.148 91.8128 443.771 88.8442 444.397 85.1948Z" fill="white"/>
<path d="M415.375 38.4521C411.716 59.7151 391.914 76.9505 371.199 76.8938L331.501 76.7898L308.759 76.733L311.864 58.6562C312.389 55.6119 314.96 53.3995 317.974 53.3995H375.419C379.464 53.3995 383.417 51.7166 386.532 48.9938C389.647 46.2709 391.932 42.5175 392.651 38.367C394.079 30.066 388.67 23.3534 380.588 23.3534H312.841L316.84 0.000976562H384.514C394.862 0.000976562 403.497 4.30274 409.072 11.2612C414.665 18.2196 417.199 27.8253 415.375 38.4426V38.4521Z" fill="white"/>
<path d="M45.1636 1.91077V25.6035H25.3701V0.000976562H43.8551L45.1636 1.91077Z" fill="white"/>
</svg>
